solid OpenSCAD_Model
  facet normal -1 0 0
    outer loop
      vertex 327.5 100 30.5
      vertex 327.5 99.9764 31.6431
      vertex 327.5 100 31.6364
    endloop
  endfacet
  facet normal -1 0 0
    outer loop
      vertex 327.5 100 30.5
      vertex 327.5 99.4745 31.7866
      vertex 327.5 99.9764 31.6431
    endloop
  endfacet
  facet normal -1 0 0
    outer loop
      vertex 327.5 100 30.5
      vertex 327.5 99.4535 31.8045
      vertex 327.5 99.4745 31.7866
    endloop
  endfacet
  facet normal -1 0 0
    outer loop
      vertex 327.5 100 30.5
      vertex 327.5 98.9372 32.2457
      vertex 327.5 99.4535 31.8045
    endloop
  endfacet
  facet normal -1 0 0
    outer loop
      vertex 327.5 100 30.5
      vertex 327.5 98.9241 32.2642
      vertex 327.5 98.9372 32.2457
    endloop
  endfacet
  facet normal -1 0 0
    outer loop
      vertex 327.5 100 30.5
      vertex 327.5 98.4036 33
      vertex 327.5 98.9241 32.2642
    endloop
  endfacet
  facet normal -1 0 0
    outer loop
      vertex 327.5 100 30.5
      vertex 327.5 1.59639 33
      vertex 327.5 98.4036 33
    endloop
  endfacet
  facet normal -1 0 0
    outer loop
      vertex 327.5 0 30.5
      vertex 327.5 1.59639 33
      vertex 327.5 100 30.5
    endloop
  endfacet
  facet normal -1 0 0
    outer loop
      vertex 327.5 1.59639 33
      vertex 327.5 0 30.5
      vertex 327.5 1.07589 32.2642
    endloop
  endfacet
  facet normal -1 0 0
    outer loop
      vertex 327.5 1.07589 32.2642
      vertex 327.5 0 30.5
      vertex 327.5 1.06278 32.2457
    endloop
  endfacet
  facet normal -1 0 0
    outer loop
      vertex 327.5 1.06278 32.2457
      vertex 327.5 0 30.5
      vertex 327.5 0.546463 31.8045
    endloop
  endfacet
  facet normal -1 0 0
    outer loop
      vertex 327.5 0.546463 31.8045
      vertex 327.5 0 30.5
      vertex 327.5 0.525521 31.7866
    endloop
  endfacet
  facet normal -1 0 0
    outer loop
      vertex 327.5 0.525521 31.7866
      vertex 327.5 0 30.5
      vertex 327.5 0.0236387 31.6431
    endloop
  endfacet
  facet normal -1 0 0
    outer loop
      vertex 327.5 0.0236387 31.6431
      vertex 327.5 0 30.5
      vertex 327.5 0 31.6364
    endloop
  endfacet
  facet normal 0 0 1
    outer loop
      vertex 347.942 100.549 33
      vertex 347.942 99.4512 33
      vertex 348 100 33
    endloop
  endfacet
  facet normal 0 0 1
    outer loop
      vertex 347.771 101.092 33
      vertex 347.942 99.4512 33
      vertex 347.942 100.549 33
    endloop
  endfacet
  facet normal 0 0 1
    outer loop
      vertex 347.771 101.092 33
      vertex 347.771 98.9085 33
      vertex 347.942 99.4512 33
    endloop
  endfacet
  facet normal 0 0 1
    outer loop
      vertex 347.771 101.092 33
      vertex 347.5 98.4036 33
      vertex 347.771 98.9085 33
    endloop
  endfacet
  facet normal 0 0 1
    outer loop
      vertex 347.092 102.135 33
      vertex 347.5 98.4036 33
      vertex 347.486 101.622 33
    endloop
  endfacet
  facet normal 0 0 1
    outer loop
      vertex 347.486 101.622 33
      vertex 347.5 98.4036 33
      vertex 347.771 101.092 33
    endloop
  endfacet
  facet normal 0 0 1
    outer loop
      vertex 347.942 0.548774 33
      vertex 347.942 -0.548774 33
      vertex 348 0 33
    endloop
  endfacet
  facet normal 0 0 1
    outer loop
      vertex 347.771 1.09154 33
      vertex 347.942 -0.548774 33
      vertex 347.942 0.548774 33
    endloop
  endfacet
  facet normal 0 0 1
    outer loop
      vertex 347.771 1.09154 33
      vertex 347.771 -1.09154 33
      vertex 347.942 -0.548774 33
    endloop
  endfacet
  facet normal 0 0 1
    outer loop
      vertex 347.5 1.59639 33
      vertex 347.771 -1.09154 33
      vertex 347.771 1.09154 33
    endloop
  endfacet
  facet normal 0 0 1
    outer loop
      vertex 347.5 1.59639 33
      vertex 347.486 -1.62234 33
      vertex 347.771 -1.09154 33
    endloop
  endfacet
  facet normal 0 0 1
    outer loop
      vertex 347.5 98.4036 33
      vertex 327.5 98.4036 33
      vertex 347.5 1.59639 33
    endloop
  endfacet
  facet normal 0 0 1
    outer loop
      vertex 347.5 98.4036 33
      vertex 347.092 102.135 33
      vertex 346.593 102.625 33
    endloop
  endfacet
  facet normal -0 0 1
    outer loop
      vertex 327.5 1.59639 33
      vertex 347.5 1.59639 33
      vertex 327.5 98.4036 33
    endloop
  endfacet
  facet normal 0 0 1
    outer loop
      vertex 347.5 98.4036 33
      vertex 346.593 102.625 33
      vertex 345.995 103.086 33
    endloop
  endfacet
  facet normal 0 -0 1
    outer loop
      vertex 337.5 -5.25 33
      vertex 347.5 1.59639 33
      vertex 327.5 1.59639 33
    endloop
  endfacet
  facet normal 0 0 1
    outer loop
      vertex 347.5 98.4036 33
      vertex 345.995 103.086 33
      vertex 345.303 103.513 33
    endloop
  endfacet
  facet normal 0 -0 1
    outer loop
      vertex 341.771 -4.79611 33
      vertex 347.5 1.59639 33
      vertex 340.745 -4.99305 33
    endloop
  endfacet
  facet normal 0 0 1
    outer loop
      vertex 347.5 98.4036 33
      vertex 345.303 103.513 33
      vertex 344.526 103.902 33
    endloop
  endfacet
  facet normal 0 -0 1
    outer loop
      vertex 343.672 -4.24734 33
      vertex 347.5 1.59639 33
      vertex 342.75 -4.54663 33
    endloop
  endfacet
  facet normal 0 0 1
    outer loop
      vertex 347.5 98.4036 33
      vertex 344.526 103.902 33
      vertex 343.672 104.247 33
    endloop
  endfacet
  facet normal 0 -0 1
    outer loop
      vertex 344.526 -3.90151 33
      vertex 347.5 1.59639 33
      vertex 343.672 -4.24734 33
    endloop
  endfacet
  facet normal 0 0 1
    outer loop
      vertex 347.5 98.4036 33
      vertex 343.672 104.247 33
      vertex 342.75 104.547 33
    endloop
  endfacet
  facet normal 0 -0 1
    outer loop
      vertex 345.995 -3.08587 33
      vertex 347.5 1.59639 33
      vertex 345.303 -3.51294 33
    endloop
  endfacet
  facet normal 0 0 1
    outer loop
      vertex 347.5 98.4036 33
      vertex 342.75 104.547 33
      vertex 341.771 104.796 33
    endloop
  endfacet
  facet normal 0 -0 1
    outer loop
      vertex 347.092 -2.13537 33
      vertex 347.5 1.59639 33
      vertex 346.593 -2.625 33
    endloop
  endfacet
  facet normal 0 0 1
    outer loop
      vertex 347.5 98.4036 33
      vertex 341.771 104.796 33
      vertex 340.745 104.993 33
    endloop
  endfacet
  facet normal 0 0 1
    outer loop
      vertex 347.5 1.59639 33
      vertex 347.092 -2.13537 33
      vertex 347.486 -1.62234 33
    endloop
  endfacet
  facet normal 0 0 1
    outer loop
      vertex 339.683 105.135 33
      vertex 347.5 98.4036 33
      vertex 340.745 104.993 33
    endloop
  endfacet
  facet normal 0 -0 1
    outer loop
      vertex 346.593 -2.625 33
      vertex 347.5 1.59639 33
      vertex 345.995 -3.08587 33
    endloop
  endfacet
  facet normal 0 0 1
    outer loop
      vertex 338.598 105.221 33
      vertex 347.5 98.4036 33
      vertex 339.683 105.135 33
    endloop
  endfacet
  facet normal 0 -0 1
    outer loop
      vertex 345.303 -3.51294 33
      vertex 347.5 1.59639 33
      vertex 344.526 -3.90151 33
    endloop
  endfacet
  facet normal 0 0 1
    outer loop
      vertex 337.5 105.25 33
      vertex 347.5 98.4036 33
      vertex 338.598 105.221 33
    endloop
  endfacet
  facet normal 0 -0 1
    outer loop
      vertex 342.75 -4.54663 33
      vertex 347.5 1.59639 33
      vertex 341.771 -4.79611 33
    endloop
  endfacet
  facet normal 0 0 1
    outer loop
      vertex 347.5 98.4036 33
      vertex 337.5 105.25 33
      vertex 327.5 98.4036 33
    endloop
  endfacet
  facet normal 0 0 1
    outer loop
      vertex 347.5 1.59639 33
      vertex 339.683 -5.13527 33
      vertex 340.745 -4.99305 33
    endloop
  endfacet
  facet normal 0 0 1
    outer loop
      vertex 327.5 98.4036 33
      vertex 337.5 105.25 33
      vertex 336.402 105.221 33
    endloop
  endfacet
  facet normal 0 0 1
    outer loop
      vertex 347.5 1.59639 33
      vertex 338.598 -5.22124 33
      vertex 339.683 -5.13527 33
    endloop
  endfacet
  facet normal 0 0 1
    outer loop
      vertex 327.5 98.4036 33
      vertex 336.402 105.221 33
      vertex 335.317 105.135 33
    endloop
  endfacet
  facet normal 0 0 1
    outer loop
      vertex 347.5 1.59639 33
      vertex 337.5 -5.25 33
      vertex 338.598 -5.22124 33
    endloop
  endfacet
  facet normal 0 0 1
    outer loop
      vertex 327.5 98.4036 33
      vertex 335.317 105.135 33
      vertex 334.255 104.993 33
    endloop
  endfacet
  facet normal 0 0 1
    outer loop
      vertex 337.5 -5.25 33
      vertex 327.5 1.59639 33
      vertex 336.402 -5.22124 33
    endloop
  endfacet
  facet normal 0 0 1
    outer loop
      vertex 327.5 98.4036 33
      vertex 334.255 104.993 33
      vertex 333.229 104.796 33
    endloop
  endfacet
  facet normal 0 0 1
    outer loop
      vertex 336.402 -5.22124 33
      vertex 327.5 1.59639 33
      vertex 335.317 -5.13527 33
    endloop
  endfacet
  facet normal 0 0 1
    outer loop
      vertex 327.5 98.4036 33
      vertex 333.229 104.796 33
      vertex 332.25 104.547 33
    endloop
  endfacet
  facet normal 0 0 1
    outer loop
      vertex 335.317 -5.13527 33
      vertex 327.5 1.59639 33
      vertex 334.255 -4.99305 33
    endloop
  endfacet
  facet normal 0 0 1
    outer loop
      vertex 327.5 98.4036 33
      vertex 332.25 104.547 33
      vertex 331.328 104.247 33
    endloop
  endfacet
  facet normal 0 0 1
    outer loop
      vertex 334.255 -4.99305 33
      vertex 327.5 1.59639 33
      vertex 333.229 -4.79611 33
    endloop
  endfacet
  facet normal 0 0 1
    outer loop
      vertex 327.5 98.4036 33
      vertex 331.328 104.247 33
      vertex 330.474 103.902 33
    endloop
  endfacet
  facet normal 0 0 1
    outer loop
      vertex 333.229 -4.79611 33
      vertex 327.5 1.59639 33
      vertex 332.25 -4.54663 33
    endloop
  endfacet
  facet normal 0 0 1
    outer loop
      vertex 327.5 98.4036 33
      vertex 330.474 103.902 33
      vertex 329.697 103.513 33
    endloop
  endfacet
  facet normal 0 0 1
    outer loop
      vertex 332.25 -4.54663 33
      vertex 327.5 1.59639 33
      vertex 331.328 -4.24734 33
    endloop
  endfacet
  facet normal 0 0 1
    outer loop
      vertex 327.5 98.4036 33
      vertex 329.697 103.513 33
      vertex 329.005 103.086 33
    endloop
  endfacet
  facet normal 0 0 1
    outer loop
      vertex 331.328 -4.24734 33
      vertex 327.5 1.59639 33
      vertex 330.474 -3.90151 33
    endloop
  endfacet
  facet normal 0 0 1
    outer loop
      vertex 327.5 98.4036 33
      vertex 329.005 103.086 33
      vertex 328.407 102.625 33
    endloop
  endfacet
  facet normal 0 0 1
    outer loop
      vertex 330.474 -3.90151 33
      vertex 327.5 1.59639 33
      vertex 329.697 -3.51294 33
    endloop
  endfacet
  facet normal 0 0 1
    outer loop
      vertex 327.5 98.4036 33
      vertex 328.407 102.625 33
      vertex 327.908 102.135 33
    endloop
  endfacet
  facet normal 0 0 1
    outer loop
      vertex 329.697 -3.51294 33
      vertex 327.5 1.59639 33
      vertex 329.005 -3.08587 33
    endloop
  endfacet
  facet normal 0 0 1
    outer loop
      vertex 327.5 98.4036 33
      vertex 327.908 102.135 33
      vertex 327.514 101.622 33
    endloop
  endfacet
  facet normal 0 0 1
    outer loop
      vertex 329.005 -3.08587 33
      vertex 327.5 1.59639 33
      vertex 328.407 -2.625 33
    endloop
  endfacet
  facet normal 0 0 1
    outer loop
      vertex 328.407 -2.625 33
      vertex 327.5 1.59639 33
      vertex 327.908 -2.13537 33
    endloop
  endfacet
  facet normal -0 0 1
    outer loop
      vertex 327.229 101.092 33
      vertex 327.5 98.4036 33
      vertex 327.514 101.622 33
    endloop
  endfacet
  facet normal 0 0 1
    outer loop
      vertex 327.229 101.092 33
      vertex 327.229 98.9085 33
      vertex 327.5 98.4036 33
    endloop
  endfacet
  facet normal -0 0 1
    outer loop
      vertex 327.058 100.549 33
      vertex 327.229 98.9085 33
      vertex 327.229 101.092 33
    endloop
  endfacet
  facet normal 0 0 1
    outer loop
      vertex 327.058 100.549 33
      vertex 327.058 99.4512 33
      vertex 327.229 98.9085 33
    endloop
  endfacet
  facet normal 0 -0 1
    outer loop
      vertex 327.058 99.4512 33
      vertex 327.058 100.549 33
      vertex 327 100 33
    endloop
  endfacet
  facet normal 0 0 1
    outer loop
      vertex 327.908 -2.13537 33
      vertex 327.5 1.59639 33
      vertex 327.514 -1.62234 33
    endloop
  endfacet
  facet normal -0 0 1
    outer loop
      vertex 327.229 1.09154 33
      vertex 327.514 -1.62234 33
      vertex 327.5 1.59639 33
    endloop
  endfacet
  facet normal 0 0 1
    outer loop
      vertex 327.229 1.09154 33
      vertex 327.229 -1.09154 33
      vertex 327.514 -1.62234 33
    endloop
  endfacet
  facet normal -0 0 1
    outer loop
      vertex 327.058 0.548774 33
      vertex 327.229 -1.09154 33
      vertex 327.229 1.09154 33
    endloop
  endfacet
  facet normal 0 0 1
    outer loop
      vertex 327.058 0.548774 33
      vertex 327.058 -0.548774 33
      vertex 327.229 -1.09154 33
    endloop
  endfacet
  facet normal 0 -0 1
    outer loop
      vertex 327.058 -0.548774 33
      vertex 327.058 0.548774 33
      vertex 327 0 33
    endloop
  endfacet
  facet normal 1 0 0
    outer loop
      vertex 347.5 99.4958 31.7805
      vertex 347.5 100 30.5
      vertex 347.5 100 31.6364
    endloop
  endfacet
  facet normal 1 0 0
    outer loop
      vertex 347.5 99.4745 31.7866
      vertex 347.5 100 30.5
      vertex 347.5 99.4958 31.7805
    endloop
  endfacet
  facet normal 1 0 0
    outer loop
      vertex 347.5 99.4535 31.8045
      vertex 347.5 100 30.5
      vertex 347.5 99.4745 31.7866
    endloop
  endfacet
  facet normal 1 0 0
    outer loop
      vertex 347.5 98.9372 32.2457
      vertex 347.5 100 30.5
      vertex 347.5 99.4535 31.8045
    endloop
  endfacet
  facet normal 1 0 0
    outer loop
      vertex 347.5 98.9241 32.2642
      vertex 347.5 100 30.5
      vertex 347.5 98.9372 32.2457
    endloop
  endfacet
  facet normal 1 0 0
    outer loop
      vertex 347.5 98.4036 33
      vertex 347.5 100 30.5
      vertex 347.5 98.9241 32.2642
    endloop
  endfacet
  facet normal 1 -0 0
    outer loop
      vertex 347.5 1.59639 33
      vertex 347.5 100 30.5
      vertex 347.5 98.4036 33
    endloop
  endfacet
  facet normal 1 0 0
    outer loop
      vertex 347.5 0 30.5
      vertex 347.5 1.59639 33
      vertex 347.5 1.07589 32.2642
    endloop
  endfacet
  facet normal 1 0 0
    outer loop
      vertex 347.5 0 30.5
      vertex 347.5 1.07589 32.2642
      vertex 347.5 1.06278 32.2457
    endloop
  endfacet
  facet normal 1 0 0
    outer loop
      vertex 347.5 0 30.5
      vertex 347.5 1.06278 32.2457
      vertex 347.5 0.546463 31.8045
    endloop
  endfacet
  facet normal 1 0 0
    outer loop
      vertex 347.5 0 30.5
      vertex 347.5 0.546463 31.8045
      vertex 347.5 0.525521 31.7866
    endloop
  endfacet
  facet normal 1 0 0
    outer loop
      vertex 347.5 0 30.5
      vertex 347.5 0.525521 31.7866
      vertex 347.5 0.504158 31.7805
    endloop
  endfacet
  facet normal 1 0 0
    outer loop
      vertex 347.5 0 30.5
      vertex 347.5 0.504158 31.7805
      vertex 347.5 0 31.6364
    endloop
  endfacet
  facet normal 1 0 0
    outer loop
      vertex 347.5 1.59639 33
      vertex 347.5 0 30.5
      vertex 347.5 100 30.5
    endloop
  endfacet
  facet normal 0 -1 0
    outer loop
      vertex 327.5 0 31.6364
      vertex 327.5 0 30.5
      vertex 327.917 0 30.5
    endloop
  endfacet
  facet normal 0 -1 -0
    outer loop
      vertex 347.5 0 31.6364
      vertex 347.083 0 30.5
      vertex 347.5 0 30.5
    endloop
  endfacet
  facet normal 0 1 0
    outer loop
      vertex 327.917 100 30.5
      vertex 327.5 100 30.5
      vertex 327.5 100 31.6364
    endloop
  endfacet
  facet normal 0 1 -0
    outer loop
      vertex 347.5 100 30.5
      vertex 347.083 100 30.5
      vertex 347.5 100 31.6364
    endloop
  endfacet
  facet normal 0.0257669 -0.98328 -0.180268
    outer loop
      vertex 338.598 -5.22124 33
      vertex 337.5 -5.25 33
      vertex 337.5 -2.5 18
    endloop
  endfacet
  facet normal 0.934363 0.0979453 -0.342597
    outer loop
      vertex 348 0 33
      vertex 347.5 0.504158 31.7805
      vertex 347.942 0.548774 33
    endloop
  endfacet
  facet normal 0.934363 0.0979373 -0.3426
    outer loop
      vertex 347.5 0.504158 31.7805
      vertex 348 0 33
      vertex 347.5 0 31.6364
    endloop
  endfacet
  facet normal 0.934363 0.097944 -0.342597
    outer loop
      vertex 347.942 0.548774 33
      vertex 347.5 0.504158 31.7805
      vertex 347.5 0.525521 31.7866
    endloop
  endfacet
  facet normal 0.934336 -0.0982022 -0.342597
    outer loop
      vertex 347.942 -0.548774 33
      vertex 347.031 -0.500865 30.5
      vertex 347.035 -0.457311 30.5
    endloop
  endfacet
  facet normal -0.934363 0.0979362 -0.3426
    outer loop
      vertex 327 0 33
      vertex 327.5 0.525521 31.7866
      vertex 327.5 0.0236387 31.6431
    endloop
  endfacet
  facet normal -0.934363 0.0979453 -0.342596
    outer loop
      vertex 327.5 0.525521 31.7866
      vertex 327 0 33
      vertex 327.058 0.548774 33
    endloop
  endfacet
  facet normal 0.757341 -0.581557 -0.297027
    outer loop
      vertex 342.708 -0.9 19.4029
      vertex 342.068 -1.01684 18
      vertex 342.157 -0.9 18
    endloop
  endfacet
  facet normal 0.757402 -0.58146 -0.297063
    outer loop
      vertex 342.068 -1.01684 18
      vertex 342.708 -0.9 19.4029
      vertex 347.092 -2.13537 33
    endloop
  endfacet
  facet normal 0.435669 -0.871374 -0.22561
    outer loop
      vertex 341.216 -1.67283 18
      vertex 344.526 -3.90151 33
      vertex 340.846 -1.85786 18
    endloop
  endfacet
  facet normal 0.435692 -0.871362 -0.225613
    outer loop
      vertex 344.526 -3.90151 33
      vertex 341.216 -1.67283 18
      vertex 345.303 -3.51294 33
    endloop
  endfacet
  facet normal 0.0776318 -0.980283 -0.18171
    outer loop
      vertex 339.683 -5.13527 33
      vertex 338.023 -2.4863 18
      vertex 338.54 -2.44537 18
    endloop
  endfacet
  facet normal 0.242121 -0.95039 -0.195283
    outer loop
      vertex 341.771 -4.79611 33
      vertex 339.534 -2.28386 18
      vertex 342.75 -4.54663 33
    endloop
  endfacet
  facet normal -0.366656 -0.905567 -0.213336
    outer loop
      vertex 331.328 -4.24734 33
      vertex 330.474 -3.90151 33
      vertex 334.561 -2.02254 18
    endloop
  endfacet
  facet normal 0.898827 -0.284733 -0.333222
    outer loop
      vertex 347.942 -0.548774 33
      vertex 346.904 -0.9 30.5
      vertex 347.017 -0.543941 30.5
    endloop
  endfacet
  facet normal 0.898833 -0.284715 -0.333223
    outer loop
      vertex 346.904 -0.9 30.5
      vertex 347.771 -1.09154 33
      vertex 345.968 -0.9 27.9751
    endloop
  endfacet
  facet normal 0.898828 -0.284731 -0.333222
    outer loop
      vertex 347.771 -1.09154 33
      vertex 346.904 -0.9 30.5
      vertex 347.942 -0.548774 33
    endloop
  endfacet
  facet normal 0.934362 -0.0979452 -0.342599
    outer loop
      vertex 347.942 -0.548774 33
      vertex 347.5 0 31.6364
      vertex 348 0 33
    endloop
  endfacet
  facet normal 0.934364 -0.0979558 -0.342592
    outer loop
      vertex 347.5 0 31.6364
      vertex 347.035 -0.457311 30.5
      vertex 347.083 0 30.5
    endloop
  endfacet
  facet normal 0.934363 -0.0979399 -0.342598
    outer loop
      vertex 347.5 0 31.6364
      vertex 347.942 -0.548774 33
      vertex 347.035 -0.457311 30.5
    endloop
  endfacet
  facet normal 0.836037 -0.447888 -0.316921
    outer loop
      vertex 347.771 -1.09154 33
      vertex 344.459 -0.9 23.9934
      vertex 345.968 -0.9 27.9751
    endloop
  endfacet
  facet normal 0.242128 -0.950388 -0.195285
    outer loop
      vertex 342.75 -4.54663 33
      vertex 339.534 -2.28386 18
      vertex 340 -2.16506 18
    endloop
  endfacet
  facet normal 0.185094 -0.964352 -0.189117
    outer loop
      vertex 340.745 -4.99305 33
      vertex 339.045 -2.37764 18
      vertex 341.771 -4.79611 33
    endloop
  endfacet
  facet normal 0.130505 -0.974104 -0.184632
    outer loop
      vertex 339.683 -5.13527 33
      vertex 339.045 -2.37764 18
      vertex 340.745 -4.99305 33
    endloop
  endfacet
  facet normal -0.757361 -0.581517 -0.297055
    outer loop
      vertex 327.908 -2.13537 33
      vertex 331.96 -0.9 20.2498
      vertex 332.292 -0.9 19.4029
    endloop
  endfacet
  facet normal -0.757398 -0.581466 -0.297062
    outer loop
      vertex 331.96 -0.9 20.2498
      vertex 327.908 -2.13537 33
      vertex 327.514 -1.62234 33
    endloop
  endfacet
  facet normal -0.898833 -0.284715 -0.333223
    outer loop
      vertex 329.032 -0.9 27.9751
      vertex 327.229 -1.09154 33
      vertex 328.096 -0.9 30.5
    endloop
  endfacet
  facet normal -0.898827 -0.284733 -0.333222
    outer loop
      vertex 328.096 -0.9 30.5
      vertex 327.058 -0.548774 33
      vertex 327.983 -0.543941 30.5
    endloop
  endfacet
  facet normal -0.898828 -0.284731 -0.333222
    outer loop
      vertex 327.058 -0.548774 33
      vertex 328.096 -0.9 30.5
      vertex 327.229 -1.09154 33
    endloop
  endfacet
  facet normal -0.934362 0.0979408 -0.3426
    outer loop
      vertex 327.5 0 31.6364
      vertex 327 0 33
      vertex 327.5 0.0236387 31.6431
    endloop
  endfacet
  facet normal 0.898851 -0.284647 -0.333231
    outer loop
      vertex 347.942 -0.548774 33
      vertex 347.017 -0.543941 30.5
      vertex 347.031 -0.500865 30.5
    endloop
  endfacet
  facet normal 0.835984 -0.447999 -0.316903
    outer loop
      vertex 347.486 -1.62234 33
      vertex 344.459 -0.9 23.9934
      vertex 347.771 -1.09154 33
    endloop
  endfacet
  facet normal 0.835952 -0.448062 -0.316898
    outer loop
      vertex 344.459 -0.9 23.9934
      vertex 347.486 -1.62234 33
      vertex 343.04 -0.9 20.2498
    endloop
  endfacet
  facet normal 0.757398 -0.581466 -0.297062
    outer loop
      vertex 347.092 -2.13537 33
      vertex 343.04 -0.9 20.2498
      vertex 347.486 -1.62234 33
    endloop
  endfacet
  facet normal 0.757361 -0.581517 -0.297055
    outer loop
      vertex 343.04 -0.9 20.2498
      vertex 347.092 -2.13537 33
      vertex 342.708 -0.9 19.4029
    endloop
  endfacet
  facet normal 0.58948 -0.765685 -0.257372
    outer loop
      vertex 346.593 -2.625 33
      vertex 341.545 -1.46946 18
      vertex 341.83 -1.25 18
    endloop
  endfacet
  facet normal 0.589517 -0.765653 -0.257382
    outer loop
      vertex 345.995 -3.08587 33
      vertex 341.545 -1.46946 18
      vertex 346.593 -2.625 33
    endloop
  endfacet
  facet normal 0.0776288 -0.980283 -0.181709
    outer loop
      vertex 338.598 -5.22124 33
      vertex 338.023 -2.4863 18
      vertex 339.683 -5.13527 33
    endloop
  endfacet
  facet normal 0.0257665 -0.98328 -0.180268
    outer loop
      vertex 338.598 -5.22124 33
      vertex 337.5 -2.5 18
      vertex 338.023 -2.4863 18
    endloop
  endfacet
  facet normal 0.366656 -0.905567 -0.213336
    outer loop
      vertex 343.672 -4.24734 33
      vertex 340.439 -2.02254 18
      vertex 344.526 -3.90151 33
    endloop
  endfacet
  facet normal 0.185083 -0.964354 -0.189116
    outer loop
      vertex 341.771 -4.79611 33
      vertex 339.045 -2.37764 18
      vertex 339.534 -2.28386 18
    endloop
  endfacet
  facet normal 0 0 -1
    outer loop
      vertex 341.83 -1.25 18
      vertex 342.157 -0.9 18
      vertex 342.068 -1.01684 18
    endloop
  endfacet
  facet normal 0 0 -1
    outer loop
      vertex 341.545 -1.46946 18
      vertex 342.157 -0.9 18
      vertex 341.83 -1.25 18
    endloop
  endfacet
  facet normal 0 0 -1
    outer loop
      vertex 341.216 -1.67283 18
      vertex 342.157 -0.9 18
      vertex 341.545 -1.46946 18
    endloop
  endfacet
  facet normal 0 0 -1
    outer loop
      vertex 340.846 -1.85786 18
      vertex 342.157 -0.9 18
      vertex 341.216 -1.67283 18
    endloop
  endfacet
  facet normal 0 0 -1
    outer loop
      vertex 340.439 -2.02254 18
      vertex 342.157 -0.9 18
      vertex 340.846 -1.85786 18
    endloop
  endfacet
  facet normal 0 0 -1
    outer loop
      vertex 340 -2.16506 18
      vertex 342.157 -0.9 18
      vertex 340.439 -2.02254 18
    endloop
  endfacet
  facet normal 0 0 -1
    outer loop
      vertex 339.534 -2.28386 18
      vertex 342.157 -0.9 18
      vertex 340 -2.16506 18
    endloop
  endfacet
  facet normal 0 0 -1
    outer loop
      vertex 339.045 -2.37764 18
      vertex 342.157 -0.9 18
      vertex 339.534 -2.28386 18
    endloop
  endfacet
  facet normal 0 0 -1
    outer loop
      vertex 338.54 -2.44537 18
      vertex 342.157 -0.9 18
      vertex 339.045 -2.37764 18
    endloop
  endfacet
  facet normal 0 0 -1
    outer loop
      vertex 338.023 -2.4863 18
      vertex 342.157 -0.9 18
      vertex 338.54 -2.44537 18
    endloop
  endfacet
  facet normal 0 0 -1
    outer loop
      vertex 337.5 -2.5 18
      vertex 342.157 -0.9 18
      vertex 338.023 -2.4863 18
    endloop
  endfacet
  facet normal 0 0 -1
    outer loop
      vertex 336.977 -2.4863 18
      vertex 342.157 -0.9 18
      vertex 337.5 -2.5 18
    endloop
  endfacet
  facet normal 0 0 -1
    outer loop
      vertex 332.843 -0.9 18
      vertex 336.977 -2.4863 18
      vertex 336.46 -2.44537 18
    endloop
  endfacet
  facet normal 0 0 -1
    outer loop
      vertex 332.843 -0.9 18
      vertex 336.46 -2.44537 18
      vertex 335.955 -2.37764 18
    endloop
  endfacet
  facet normal 0 0 -1
    outer loop
      vertex 332.843 -0.9 18
      vertex 335.955 -2.37764 18
      vertex 335.466 -2.28386 18
    endloop
  endfacet
  facet normal 0 0 -1
    outer loop
      vertex 332.843 -0.9 18
      vertex 335.466 -2.28386 18
      vertex 335 -2.16506 18
    endloop
  endfacet
  facet normal 0 0 -1
    outer loop
      vertex 332.843 -0.9 18
      vertex 335 -2.16506 18
      vertex 334.561 -2.02254 18
    endloop
  endfacet
  facet normal 0 0 -1
    outer loop
      vertex 332.843 -0.9 18
      vertex 334.561 -2.02254 18
      vertex 334.154 -1.85786 18
    endloop
  endfacet
  facet normal 0 0 -1
    outer loop
      vertex 332.843 -0.9 18
      vertex 334.154 -1.85786 18
      vertex 333.784 -1.67283 18
    endloop
  endfacet
  facet normal 0 0 -1
    outer loop
      vertex 332.843 -0.9 18
      vertex 333.784 -1.67283 18
      vertex 333.455 -1.46946 18
    endloop
  endfacet
  facet normal 0 0 -1
    outer loop
      vertex 332.843 -0.9 18
      vertex 333.455 -1.46946 18
      vertex 333.17 -1.25 18
    endloop
  endfacet
  facet normal 0 0 -1
    outer loop
      vertex 332.843 -0.9 18
      vertex 333.17 -1.25 18
      vertex 332.932 -1.01684 18
    endloop
  endfacet
  facet normal 0 0 -1
    outer loop
      vertex 336.977 -2.4863 18
      vertex 332.843 -0.9 18
      vertex 342.157 -0.9 18
    endloop
  endfacet
  facet normal -0.898851 -0.284647 -0.333231
    outer loop
      vertex 327.983 -0.543941 30.5
      vertex 327.058 -0.548774 33
      vertex 327.969 -0.500865 30.5
    endloop
  endfacet
  facet normal -0.185083 -0.964354 -0.189116
    outer loop
      vertex 335.955 -2.37764 18
      vertex 333.229 -4.79611 33
      vertex 335.466 -2.28386 18
    endloop
  endfacet
  facet normal -0.185094 -0.964352 -0.189117
    outer loop
      vertex 334.255 -4.99305 33
      vertex 333.229 -4.79611 33
      vertex 335.955 -2.37764 18
    endloop
  endfacet
  facet normal -0.673075 -0.685901 -0.276605
    outer loop
      vertex 328.407 -2.625 33
      vertex 327.908 -2.13537 33
      vertex 332.932 -1.01684 18
    endloop
  endfacet
  facet normal -0.509967 -0.825953 -0.240282
    outer loop
      vertex 329.697 -3.51294 33
      vertex 329.005 -3.08587 33
      vertex 333.455 -1.46946 18
    endloop
  endfacet
  facet normal -0.58948 -0.765685 -0.257372
    outer loop
      vertex 333.455 -1.46946 18
      vertex 328.407 -2.625 33
      vertex 333.17 -1.25 18
    endloop
  endfacet
  facet normal 0.673105 -0.685869 -0.27661
    outer loop
      vertex 346.593 -2.625 33
      vertex 341.83 -1.25 18
      vertex 342.068 -1.01684 18
    endloop
  endfacet
  facet normal 0.673075 -0.685901 -0.276605
    outer loop
      vertex 346.593 -2.625 33
      vertex 342.068 -1.01684 18
      vertex 347.092 -2.13537 33
    endloop
  endfacet
  facet normal 0.509967 -0.825953 -0.240282
    outer loop
      vertex 345.303 -3.51294 33
      vertex 341.545 -1.46946 18
      vertex 345.995 -3.08587 33
    endloop
  endfacet
  facet normal 0.30238 -0.931256 -0.203293
    outer loop
      vertex 342.75 -4.54663 33
      vertex 340.439 -2.02254 18
      vertex 343.672 -4.24734 33
    endloop
  endfacet
  facet normal 0.302377 -0.931257 -0.203293
    outer loop
      vertex 342.75 -4.54663 33
      vertex 340 -2.16506 18
      vertex 340.439 -2.02254 18
    endloop
  endfacet
  facet normal 0.130507 -0.974104 -0.184632
    outer loop
      vertex 339.683 -5.13527 33
      vertex 338.54 -2.44537 18
      vertex 339.045 -2.37764 18
    endloop
  endfacet
  facet normal -0.835952 -0.448062 -0.316898
    outer loop
      vertex 327.514 -1.62234 33
      vertex 330.541 -0.9 23.9934
      vertex 331.96 -0.9 20.2498
    endloop
  endfacet
  facet normal -0.835984 -0.447999 -0.316903
    outer loop
      vertex 330.541 -0.9 23.9934
      vertex 327.514 -1.62234 33
      vertex 327.229 -1.09154 33
    endloop
  endfacet
  facet normal -0.836037 -0.447888 -0.316921
    outer loop
      vertex 330.541 -0.9 23.9934
      vertex 327.229 -1.09154 33
      vertex 329.032 -0.9 27.9751
    endloop
  endfacet
  facet normal -0.30238 -0.931256 -0.203293
    outer loop
      vertex 332.25 -4.54663 33
      vertex 331.328 -4.24734 33
      vertex 334.561 -2.02254 18
    endloop
  endfacet
  facet normal -0.0257665 -0.98328 -0.180268
    outer loop
      vertex 337.5 -2.5 18
      vertex 336.402 -5.22124 33
      vertex 336.977 -2.4863 18
    endloop
  endfacet
  facet normal -0.242121 -0.95039 -0.195283
    outer loop
      vertex 333.229 -4.79611 33
      vertex 332.25 -4.54663 33
      vertex 335.466 -2.28386 18
    endloop
  endfacet
  facet normal -0.589517 -0.765653 -0.257382
    outer loop
      vertex 329.005 -3.08587 33
      vertex 328.407 -2.625 33
      vertex 333.455 -1.46946 18
    endloop
  endfacet
  facet normal -0.509995 -0.825934 -0.240287
    outer loop
      vertex 333.784 -1.67283 18
      vertex 329.697 -3.51294 33
      vertex 333.455 -1.46946 18
    endloop
  endfacet
  facet normal -0.435692 -0.871362 -0.225613
    outer loop
      vertex 333.784 -1.67283 18
      vertex 330.474 -3.90151 33
      vertex 329.697 -3.51294 33
    endloop
  endfacet
  facet normal -0.435669 -0.871374 -0.22561
    outer loop
      vertex 330.474 -3.90151 33
      vertex 333.784 -1.67283 18
      vertex 334.154 -1.85786 18
    endloop
  endfacet
  facet normal -0.366671 -0.90556 -0.213339
    outer loop
      vertex 334.561 -2.02254 18
      vertex 330.474 -3.90151 33
      vertex 334.154 -1.85786 18
    endloop
  endfacet
  facet normal -0.835993 0.447988 -0.316895
    outer loop
      vertex 327.5 1.07589 32.2642
      vertex 327.229 1.09154 33
      vertex 327.5 1.59639 33
    endloop
  endfacet
  facet normal -0.898832 0.284732 -0.333209
    outer loop
      vertex 327.5 1.06278 32.2457
      vertex 327.058 0.548774 33
      vertex 327.229 1.09154 33
    endloop
  endfacet
  facet normal -0.898833 0.284717 -0.333219
    outer loop
      vertex 327.058 0.548774 33
      vertex 327.5 1.06278 32.2457
      vertex 327.5 0.546463 31.8045
    endloop
  endfacet
  facet normal -0.934341 -0.0982027 -0.342583
    outer loop
      vertex 327.921 -0.0435535 30.5
      vertex 327.5 0 31.6364
      vertex 327.917 0 30.5
    endloop
  endfacet
  facet normal -0.934359 -0.0979813 -0.342598
    outer loop
      vertex 327.5 0 31.6364
      vertex 327.921 -0.0435535 30.5
      vertex 327 0 33
    endloop
  endfacet
  facet normal -0.934361 -0.0979555 -0.3426
    outer loop
      vertex 327.969 -0.500865 30.5
      vertex 327 0 33
      vertex 327.921 -0.0435535 30.5
    endloop
  endfacet
  facet normal -0.934361 -0.0979451 -0.342602
    outer loop
      vertex 327 0 33
      vertex 327.969 -0.500865 30.5
      vertex 327.058 -0.548774 33
    endloop
  endfacet
  facet normal 0.509995 -0.825934 -0.240287
    outer loop
      vertex 345.303 -3.51294 33
      vertex 341.216 -1.67283 18
      vertex 341.545 -1.46946 18
    endloop
  endfacet
  facet normal 0.366671 -0.90556 -0.213339
    outer loop
      vertex 344.526 -3.90151 33
      vertex 340.439 -2.02254 18
      vertex 340.846 -1.85786 18
    endloop
  endfacet
  facet normal -0.757341 -0.581557 -0.297027
    outer loop
      vertex 332.932 -1.01684 18
      vertex 332.292 -0.9 19.4029
      vertex 332.843 -0.9 18
    endloop
  endfacet
  facet normal -0.757402 -0.58146 -0.297063
    outer loop
      vertex 332.292 -0.9 19.4029
      vertex 332.932 -1.01684 18
      vertex 327.908 -2.13537 33
    endloop
  endfacet
  facet normal -0.130505 -0.974104 -0.184632
    outer loop
      vertex 335.317 -5.13527 33
      vertex 334.255 -4.99305 33
      vertex 335.955 -2.37764 18
    endloop
  endfacet
  facet normal -0.130507 -0.974104 -0.184632
    outer loop
      vertex 336.46 -2.44537 18
      vertex 335.317 -5.13527 33
      vertex 335.955 -2.37764 18
    endloop
  endfacet
  facet normal -0.0776288 -0.980283 -0.181709
    outer loop
      vertex 336.402 -5.22124 33
      vertex 335.317 -5.13527 33
      vertex 336.977 -2.4863 18
    endloop
  endfacet
  facet normal -0.0257669 -0.98328 -0.180268
    outer loop
      vertex 337.5 -5.25 33
      vertex 336.402 -5.22124 33
      vertex 337.5 -2.5 18
    endloop
  endfacet
  facet normal -0.242128 -0.950388 -0.195285
    outer loop
      vertex 335.466 -2.28386 18
      vertex 332.25 -4.54663 33
      vertex 335 -2.16506 18
    endloop
  endfacet
  facet normal -0.302377 -0.931257 -0.203293
    outer loop
      vertex 335 -2.16506 18
      vertex 332.25 -4.54663 33
      vertex 334.561 -2.02254 18
    endloop
  endfacet
  facet normal -0.673105 -0.685869 -0.27661
    outer loop
      vertex 333.17 -1.25 18
      vertex 328.407 -2.625 33
      vertex 332.932 -1.01684 18
    endloop
  endfacet
  facet normal 0.898832 0.284732 -0.333209
    outer loop
      vertex 347.942 0.548774 33
      vertex 347.5 1.06278 32.2457
      vertex 347.771 1.09154 33
    endloop
  endfacet
  facet normal 0.898833 0.284717 -0.333219
    outer loop
      vertex 347.5 1.06278 32.2457
      vertex 347.942 0.548774 33
      vertex 347.5 0.546463 31.8045
    endloop
  endfacet
  facet normal 0.898838 0.2847 -0.333221
    outer loop
      vertex 347.942 0.548774 33
      vertex 347.5 0.525521 31.7866
      vertex 347.5 0.546463 31.8045
    endloop
  endfacet
  facet normal 0.835992 0.447989 -0.316895
    outer loop
      vertex 347.771 1.09154 33
      vertex 347.5 1.07589 32.2642
      vertex 347.5 1.59639 33
    endloop
  endfacet
  facet normal 0.835982 0.448012 -0.316892
    outer loop
      vertex 347.771 1.09154 33
      vertex 347.5 1.06278 32.2457
      vertex 347.5 1.07589 32.2642
    endloop
  endfacet
  facet normal -0.835982 0.448012 -0.316892
    outer loop
      vertex 327.5 1.06278 32.2457
      vertex 327.229 1.09154 33
      vertex 327.5 1.07589 32.2642
    endloop
  endfacet
  facet normal -0.0776318 -0.980283 -0.18171
    outer loop
      vertex 336.977 -2.4863 18
      vertex 335.317 -5.13527 33
      vertex 336.46 -2.44537 18
    endloop
  endfacet
  facet normal -0.89883 0.284728 -0.333218
    outer loop
      vertex 327.5 0.525521 31.7866
      vertex 327.058 0.548774 33
      vertex 327.5 0.546463 31.8045
    endloop
  endfacet
  facet normal 0.934363 -0.0979459 -0.342597
    outer loop
      vertex 347.942 99.4512 33
      vertex 347.5 99.4745 31.7866
      vertex 347.5 99.4958 31.7805
    endloop
  endfacet
  facet normal 0.934362 0.0979451 -0.342599
    outer loop
      vertex 347.5 100 31.6364
      vertex 347.942 100.549 33
      vertex 348 100 33
    endloop
  endfacet
  facet normal 0.934363 0.0979396 -0.342598
    outer loop
      vertex 347.942 100.549 33
      vertex 347.5 100 31.6364
      vertex 347.035 100.457 30.5
    endloop
  endfacet
  facet normal 0.934364 0.0979554 -0.342592
    outer loop
      vertex 347.035 100.457 30.5
      vertex 347.5 100 31.6364
      vertex 347.083 100 30.5
    endloop
  endfacet
  facet normal 0.934335 0.0982132 -0.342597
    outer loop
      vertex 347.035 100.457 30.5
      vertex 347.031 100.501 30.5
      vertex 347.942 100.549 33
    endloop
  endfacet
  facet normal 0.366671 0.90556 -0.213339
    outer loop
      vertex 340.846 101.858 18
      vertex 340.439 102.023 18
      vertex 344.526 103.902 33
    endloop
  endfacet
  facet normal 0.509973 0.825949 -0.240284
    outer loop
      vertex 345.995 103.086 33
      vertex 341.545 101.469 18
      vertex 345.303 103.513 33
    endloop
  endfacet
  facet normal -0.898833 -0.284717 -0.333219
    outer loop
      vertex 327.5 98.9372 32.2457
      vertex 327.058 99.4512 33
      vertex 327.5 99.4535 31.8045
    endloop
  endfacet
  facet normal -0.898832 -0.284732 -0.333209
    outer loop
      vertex 327.058 99.4512 33
      vertex 327.5 98.9372 32.2457
      vertex 327.229 98.9085 33
    endloop
  endfacet
  facet normal -0.0257686 0.98328 -0.180268
    outer loop
      vertex 337.5 102.5 18
      vertex 336.402 105.221 33
      vertex 337.5 105.25 33
    endloop
  endfacet
  facet normal 0.242122 0.95039 -0.195284
    outer loop
      vertex 340 102.165 18
      vertex 339.534 102.284 18
      vertex 342.75 104.547 33
    endloop
  endfacet
  facet normal 0.757399 0.581464 -0.297062
    outer loop
      vertex 344.271 101.1 23.78
      vertex 347.092 102.135 33
      vertex 347.486 101.622 33
    endloop
  endfacet
  facet normal 0.757414 0.581443 -0.297064
    outer loop
      vertex 347.092 102.135 33
      vertex 344.271 101.1 23.78
      vertex 343.418 101.1 21.6042
    endloop
  endfacet
  facet normal -0.510005 0.825927 -0.240289
    outer loop
      vertex 333.455 101.469 18
      vertex 329.697 103.513 33
      vertex 333.784 101.673 18
    endloop
  endfacet
  facet normal 0.898833 -0.284717 -0.333219
    outer loop
      vertex 347.942 99.4512 33
      vertex 347.5 98.9372 32.2457
      vertex 347.5 99.4535 31.8045
    endloop
  endfacet
  facet normal 0.898832 -0.284732 -0.333209
    outer loop
      vertex 347.5 98.9372 32.2457
      vertex 347.942 99.4512 33
      vertex 347.771 98.9085 33
    endloop
  endfacet
  facet normal 0.934363 -0.0979373 -0.3426
    outer loop
      vertex 348 100 33
      vertex 347.5 99.4958 31.7805
      vertex 347.5 100 31.6364
    endloop
  endfacet
  facet normal 0.934363 -0.0979452 -0.342597
    outer loop
      vertex 347.5 99.4958 31.7805
      vertex 348 100 33
      vertex 347.942 99.4512 33
    endloop
  endfacet
  facet normal 0.185092 0.964353 -0.189117
    outer loop
      vertex 341.771 104.796 33
      vertex 339.045 102.378 18
      vertex 340.745 104.993 33
    endloop
  endfacet
  facet normal 0.673075 0.685901 -0.276603
    outer loop
      vertex 347.092 102.135 33
      vertex 341.83 101.25 18
      vertex 346.593 102.625 33
    endloop
  endfacet
  facet normal 0.836139 0.447677 -0.316949
    outer loop
      vertex 346.874 100.996 30.5
      vertex 346.851 101.038 30.5
      vertex 347.771 101.092 33
    endloop
  endfacet
  facet normal -0.673092 0.685883 -0.276608
    outer loop
      vertex 333.17 101.25 18
      vertex 332.559 101.1 19.1152
      vertex 327.908 102.135 33
    endloop
  endfacet
  facet normal -0.673131 0.685833 -0.276637
    outer loop
      vertex 332.559 101.1 19.1152
      vertex 333.17 101.25 18
      vertex 333.017 101.1 18
    endloop
  endfacet
  facet normal -0.934341 0.0981967 -0.342583
    outer loop
      vertex 327.5 100 31.6364
      vertex 327.921 100.044 30.5
      vertex 327.917 100 30.5
    endloop
  endfacet
  facet normal -0.934359 0.0979753 -0.342598
    outer loop
      vertex 327.921 100.044 30.5
      vertex 327.5 100 31.6364
      vertex 327 100 33
    endloop
  endfacet
  facet normal 0.836007 -0.447958 -0.3169
    outer loop
      vertex 347.771 98.9085 33
      vertex 347.5 98.9241 32.2642
      vertex 347.5 98.9372 32.2457
    endloop
  endfacet
  facet normal 0.835993 -0.447989 -0.316895
    outer loop
      vertex 347.771 98.9085 33
      vertex 347.5 98.4036 33
      vertex 347.5 98.9241 32.2642
    endloop
  endfacet
  facet normal 0.0257686 0.98328 -0.180268
    outer loop
      vertex 338.598 105.221 33
      vertex 337.5 102.5 18
      vertex 337.5 105.25 33
    endloop
  endfacet
  facet normal 0.077639 0.980282 -0.18171
    outer loop
      vertex 338.54 102.445 18
      vertex 338.023 102.486 18
      vertex 339.683 105.135 33
    endloop
  endfacet
  facet normal 0.13051 0.974104 -0.184633
    outer loop
      vertex 340.745 104.993 33
      vertex 339.045 102.378 18
      vertex 339.683 105.135 33
    endloop
  endfacet
  facet normal 0.185089 0.964353 -0.189117
    outer loop
      vertex 339.534 102.284 18
      vertex 339.045 102.378 18
      vertex 341.771 104.796 33
    endloop
  endfacet
  facet normal 0.43569 0.871363 -0.225613
    outer loop
      vertex 341.216 101.673 18
      vertex 344.526 103.902 33
      vertex 345.303 103.513 33
    endloop
  endfacet
  facet normal 0.435669 0.871374 -0.22561
    outer loop
      vertex 344.526 103.902 33
      vertex 341.216 101.673 18
      vertex 340.846 101.858 18
    endloop
  endfacet
  facet normal -0.835993 -0.447989 -0.316895
    outer loop
      vertex 327.5 98.4036 33
      vertex 327.229 98.9085 33
      vertex 327.5 98.9241 32.2642
    endloop
  endfacet
  facet normal -0.589514 0.765655 -0.257382
    outer loop
      vertex 333.455 101.469 18
      vertex 328.407 102.625 33
      vertex 329.005 103.086 33
    endloop
  endfacet
  facet normal -0.93436 0.0979566 -0.342602
    outer loop
      vertex 327.921 100.044 30.5
      vertex 327.058 100.549 33
      vertex 327.969 100.501 30.5
    endloop
  endfacet
  facet normal -0.934362 0.097945 -0.3426
    outer loop
      vertex 327.058 100.549 33
      vertex 327.921 100.044 30.5
      vertex 327 100 33
    endloop
  endfacet
  facet normal 0 0 -1
    outer loop
      vertex 341.983 101.1 18
      vertex 341.545 101.469 18
      vertex 341.83 101.25 18
    endloop
  endfacet
  facet normal 0 0 -1
    outer loop
      vertex 341.983 101.1 18
      vertex 341.216 101.673 18
      vertex 341.545 101.469 18
    endloop
  endfacet
  facet normal 0 0 -1
    outer loop
      vertex 341.983 101.1 18
      vertex 340.846 101.858 18
      vertex 341.216 101.673 18
    endloop
  endfacet
  facet normal 0 0 -1
    outer loop
      vertex 341.983 101.1 18
      vertex 340.439 102.023 18
      vertex 340.846 101.858 18
    endloop
  endfacet
  facet normal 0 0 -1
    outer loop
      vertex 341.983 101.1 18
      vertex 340 102.165 18
      vertex 340.439 102.023 18
    endloop
  endfacet
  facet normal 0 0 -1
    outer loop
      vertex 341.983 101.1 18
      vertex 339.534 102.284 18
      vertex 340 102.165 18
    endloop
  endfacet
  facet normal 0 0 -1
    outer loop
      vertex 341.983 101.1 18
      vertex 339.045 102.378 18
      vertex 339.534 102.284 18
    endloop
  endfacet
  facet normal 0 0 -1
    outer loop
      vertex 341.983 101.1 18
      vertex 338.54 102.445 18
      vertex 339.045 102.378 18
    endloop
  endfacet
  facet normal 0 0 -1
    outer loop
      vertex 341.983 101.1 18
      vertex 338.023 102.486 18
      vertex 338.54 102.445 18
    endloop
  endfacet
  facet normal 0 0 -1
    outer loop
      vertex 341.983 101.1 18
      vertex 337.5 102.5 18
      vertex 338.023 102.486 18
    endloop
  endfacet
  facet normal 0 0 -1
    outer loop
      vertex 341.983 101.1 18
      vertex 336.977 102.486 18
      vertex 337.5 102.5 18
    endloop
  endfacet
  facet normal 0 0 -1
    outer loop
      vertex 333.017 101.1 18
      vertex 336.977 102.486 18
      vertex 341.983 101.1 18
    endloop
  endfacet
  facet normal 0 0 -1
    outer loop
      vertex 336.977 102.486 18
      vertex 333.017 101.1 18
      vertex 336.46 102.445 18
    endloop
  endfacet
  facet normal 0 0 -1
    outer loop
      vertex 336.46 102.445 18
      vertex 333.017 101.1 18
      vertex 335.955 102.378 18
    endloop
  endfacet
  facet normal 0 0 -1
    outer loop
      vertex 335.955 102.378 18
      vertex 333.017 101.1 18
      vertex 335.466 102.284 18
    endloop
  endfacet
  facet normal 0 0 -1
    outer loop
      vertex 335.466 102.284 18
      vertex 333.017 101.1 18
      vertex 335 102.165 18
    endloop
  endfacet
  facet normal 0 0 -1
    outer loop
      vertex 335 102.165 18
      vertex 333.017 101.1 18
      vertex 334.561 102.023 18
    endloop
  endfacet
  facet normal 0 0 -1
    outer loop
      vertex 334.561 102.023 18
      vertex 333.017 101.1 18
      vertex 334.154 101.858 18
    endloop
  endfacet
  facet normal 0 0 -1
    outer loop
      vertex 334.154 101.858 18
      vertex 333.017 101.1 18
      vertex 333.784 101.673 18
    endloop
  endfacet
  facet normal 0 0 -1
    outer loop
      vertex 333.784 101.673 18
      vertex 333.017 101.1 18
      vertex 333.455 101.469 18
    endloop
  endfacet
  facet normal 0 0 -1
    outer loop
      vertex 333.455 101.469 18
      vertex 333.017 101.1 18
      vertex 333.17 101.25 18
    endloop
  endfacet
  facet normal -0.898831 -0.284723 -0.333219
    outer loop
      vertex 327.5 99.4535 31.8045
      vertex 327.058 99.4512 33
      vertex 327.5 99.4745 31.7866
    endloop
  endfacet
  facet normal -0.242122 0.95039 -0.195284
    outer loop
      vertex 335.466 102.284 18
      vertex 332.25 104.547 33
      vertex 333.229 104.796 33
    endloop
  endfacet
  facet normal -0.242122 0.95039 -0.195284
    outer loop
      vertex 335 102.165 18
      vertex 332.25 104.547 33
      vertex 335.466 102.284 18
    endloop
  endfacet
  facet normal 0.898839 -0.284695 -0.333222
    outer loop
      vertex 347.942 99.4512 33
      vertex 347.5 99.4535 31.8045
      vertex 347.5 99.4745 31.7866
    endloop
  endfacet
  facet normal -0.0257647 0.98328 -0.180268
    outer loop
      vertex 336.977 102.486 18
      vertex 336.402 105.221 33
      vertex 337.5 102.5 18
    endloop
  endfacet
  facet normal 0.130503 0.974105 -0.184633
    outer loop
      vertex 339.045 102.378 18
      vertex 338.54 102.445 18
      vertex 339.683 105.135 33
    endloop
  endfacet
  facet normal 0.30237 0.93126 -0.203292
    outer loop
      vertex 340.439 102.023 18
      vertex 340 102.165 18
      vertex 342.75 104.547 33
    endloop
  endfacet
  facet normal 0.242122 0.95039 -0.195284
    outer loop
      vertex 342.75 104.547 33
      vertex 339.534 102.284 18
      vertex 341.771 104.796 33
    endloop
  endfacet
  facet normal 0.589473 0.76569 -0.257371
    outer loop
      vertex 341.83 101.25 18
      vertex 341.545 101.469 18
      vertex 346.593 102.625 33
    endloop
  endfacet
  facet normal -0.836007 -0.447958 -0.3169
    outer loop
      vertex 327.5 98.9241 32.2642
      vertex 327.229 98.9085 33
      vertex 327.5 98.9372 32.2457
    endloop
  endfacet
  facet normal -0.509973 0.825949 -0.240284
    outer loop
      vertex 333.455 101.469 18
      vertex 329.005 103.086 33
      vertex 329.697 103.513 33
    endloop
  endfacet
  facet normal -0.898828 0.28473 -0.333222
    outer loop
      vertex 328.126 100.996 30.5
      vertex 327.058 100.549 33
      vertex 327.229 101.092 33
    endloop
  endfacet
  facet normal -0.898829 0.284726 -0.333223
    outer loop
      vertex 327.058 100.549 33
      vertex 328.126 100.996 30.5
      vertex 327.983 100.544 30.5
    endloop
  endfacet
  facet normal -0.89885 0.284652 -0.33323
    outer loop
      vertex 327.969 100.501 30.5
      vertex 327.058 100.549 33
      vertex 327.983 100.544 30.5
    endloop
  endfacet
  facet normal -0.934361 -0.0979526 -0.342599
    outer loop
      vertex 327.5 99.9764 31.6431
      vertex 327 100 33
      vertex 327.5 100 31.6364
    endloop
  endfacet
  facet normal -0.934363 -0.0979358 -0.3426
    outer loop
      vertex 327.5 99.4745 31.7866
      vertex 327 100 33
      vertex 327.5 99.9764 31.6431
    endloop
  endfacet
  facet normal -0.934363 -0.0979452 -0.342596
    outer loop
      vertex 327 100 33
      vertex 327.5 99.4745 31.7866
      vertex 327.058 99.4512 33
    endloop
  endfacet
  facet normal -0.185092 0.964353 -0.189117
    outer loop
      vertex 335.955 102.378 18
      vertex 333.229 104.796 33
      vertex 334.255 104.993 33
    endloop
  endfacet
  facet normal -0.435669 0.871374 -0.22561
    outer loop
      vertex 333.784 101.673 18
      vertex 330.474 103.902 33
      vertex 334.154 101.858 18
    endloop
  endfacet
  facet normal -0.43569 0.871363 -0.225613
    outer loop
      vertex 330.474 103.902 33
      vertex 333.784 101.673 18
      vertex 329.697 103.513 33
    endloop
  endfacet
  facet normal 0.0257647 0.98328 -0.180268
    outer loop
      vertex 338.023 102.486 18
      vertex 337.5 102.5 18
      vertex 338.598 105.221 33
    endloop
  endfacet
  facet normal 0.0776254 0.980284 -0.181709
    outer loop
      vertex 339.683 105.135 33
      vertex 338.023 102.486 18
      vertex 338.598 105.221 33
    endloop
  endfacet
  facet normal -0.077639 0.980282 -0.18171
    outer loop
      vertex 336.46 102.445 18
      vertex 335.317 105.135 33
      vertex 336.977 102.486 18
    endloop
  endfacet
  facet normal -0.0776254 0.980284 -0.181709
    outer loop
      vertex 336.977 102.486 18
      vertex 335.317 105.135 33
      vertex 336.402 105.221 33
    endloop
  endfacet
  facet normal 0.302379 0.931257 -0.203293
    outer loop
      vertex 343.672 104.247 33
      vertex 340.439 102.023 18
      vertex 342.75 104.547 33
    endloop
  endfacet
  facet normal 0.366653 0.905568 -0.213335
    outer loop
      vertex 344.526 103.902 33
      vertex 340.439 102.023 18
      vertex 343.672 104.247 33
    endloop
  endfacet
  facet normal 0.510005 0.825927 -0.240289
    outer loop
      vertex 341.545 101.469 18
      vertex 341.216 101.673 18
      vertex 345.303 103.513 33
    endloop
  endfacet
  facet normal 0.589514 0.765655 -0.257382
    outer loop
      vertex 346.593 102.625 33
      vertex 341.545 101.469 18
      vertex 345.995 103.086 33
    endloop
  endfacet
  facet normal 0.673131 0.685833 -0.276637
    outer loop
      vertex 341.83 101.25 18
      vertex 342.441 101.1 19.1152
      vertex 341.983 101.1 18
    endloop
  endfacet
  facet normal 0.673092 0.685883 -0.276608
    outer loop
      vertex 342.441 101.1 19.1152
      vertex 341.83 101.25 18
      vertex 347.092 102.135 33
    endloop
  endfacet
  facet normal -0.836139 0.447677 -0.316949
    outer loop
      vertex 328.126 100.996 30.5
      vertex 327.229 101.092 33
      vertex 328.149 101.038 30.5
    endloop
  endfacet
  facet normal -0.835988 0.447991 -0.316905
    outer loop
      vertex 328.182 101.1 30.5
      vertex 327.514 101.622 33
      vertex 330.729 101.1 23.78
    endloop
  endfacet
  facet normal -0.835982 0.448001 -0.316906
    outer loop
      vertex 328.182 101.1 30.5
      vertex 327.229 101.092 33
      vertex 327.514 101.622 33
    endloop
  endfacet
  facet normal -0.835865 0.448251 -0.316861
    outer loop
      vertex 327.229 101.092 33
      vertex 328.182 101.1 30.5
      vertex 328.149 101.038 30.5
    endloop
  endfacet
  facet normal -0.75737 0.581506 -0.297055
    outer loop
      vertex 331.582 101.1 21.6042
      vertex 327.908 102.135 33
      vertex 332.559 101.1 19.1152
    endloop
  endfacet
  facet normal -0.757414 0.581443 -0.297064
    outer loop
      vertex 330.729 101.1 23.78
      vertex 327.908 102.135 33
      vertex 331.582 101.1 21.6042
    endloop
  endfacet
  facet normal -0.757399 0.581464 -0.297062
    outer loop
      vertex 327.908 102.135 33
      vertex 330.729 101.1 23.78
      vertex 327.514 101.622 33
    endloop
  endfacet
  facet normal -0.673075 0.685901 -0.276603
    outer loop
      vertex 333.17 101.25 18
      vertex 327.908 102.135 33
      vertex 328.407 102.625 33
    endloop
  endfacet
  facet normal -0.589473 0.76569 -0.257371
    outer loop
      vertex 333.17 101.25 18
      vertex 328.407 102.625 33
      vertex 333.455 101.469 18
    endloop
  endfacet
  facet normal -0.366671 0.90556 -0.213339
    outer loop
      vertex 334.154 101.858 18
      vertex 330.474 103.902 33
      vertex 334.561 102.023 18
    endloop
  endfacet
  facet normal -0.366653 0.905568 -0.213335
    outer loop
      vertex 334.561 102.023 18
      vertex 330.474 103.902 33
      vertex 331.328 104.247 33
    endloop
  endfacet
  facet normal -0.30237 0.93126 -0.203292
    outer loop
      vertex 334.561 102.023 18
      vertex 332.25 104.547 33
      vertex 335 102.165 18
    endloop
  endfacet
  facet normal -0.302379 0.931257 -0.203293
    outer loop
      vertex 334.561 102.023 18
      vertex 331.328 104.247 33
      vertex 332.25 104.547 33
    endloop
  endfacet
  facet normal -0.185089 0.964353 -0.189117
    outer loop
      vertex 335.466 102.284 18
      vertex 333.229 104.796 33
      vertex 335.955 102.378 18
    endloop
  endfacet
  facet normal 0.835982 0.448001 -0.316906
    outer loop
      vertex 347.771 101.092 33
      vertex 346.818 101.1 30.5
      vertex 347.486 101.622 33
    endloop
  endfacet
  facet normal 0.835865 0.448251 -0.316861
    outer loop
      vertex 346.818 101.1 30.5
      vertex 347.771 101.092 33
      vertex 346.851 101.038 30.5
    endloop
  endfacet
  facet normal 0.835988 0.447991 -0.316905
    outer loop
      vertex 347.486 101.622 33
      vertex 346.818 101.1 30.5
      vertex 344.271 101.1 23.78
    endloop
  endfacet
  facet normal -0.13051 0.974104 -0.184633
    outer loop
      vertex 335.955 102.378 18
      vertex 334.255 104.993 33
      vertex 335.317 105.135 33
    endloop
  endfacet
  facet normal -0.130503 0.974105 -0.184633
    outer loop
      vertex 335.955 102.378 18
      vertex 335.317 105.135 33
      vertex 336.46 102.445 18
    endloop
  endfacet
  facet normal 0.75737 0.581506 -0.297055
    outer loop
      vertex 343.418 101.1 21.6042
      vertex 342.441 101.1 19.1152
      vertex 347.092 102.135 33
    endloop
  endfacet
  facet normal 0.898828 0.28473 -0.333222
    outer loop
      vertex 347.942 100.549 33
      vertex 346.874 100.996 30.5
      vertex 347.771 101.092 33
    endloop
  endfacet
  facet normal 0.898829 0.284726 -0.333223
    outer loop
      vertex 346.874 100.996 30.5
      vertex 347.942 100.549 33
      vertex 347.017 100.544 30.5
    endloop
  endfacet
  facet normal 0.89885 0.284652 -0.33323
    outer loop
      vertex 347.031 100.501 30.5
      vertex 347.017 100.544 30.5
      vertex 347.942 100.549 33
    endloop
  endfacet
  facet normal 0 0 -1
    outer loop
      vertex 347.083 0 30.5
      vertex 347.5 100 30.5
      vertex 347.5 0 30.5
    endloop
  endfacet
  facet normal 0 0 -1
    outer loop
      vertex 347.083 0 30.5
      vertex 347.083 100 30.5
      vertex 347.5 100 30.5
    endloop
  endfacet
  facet normal 0 0 -1
    outer loop
      vertex 346.904 -0.9 30.5
      vertex 347.083 0 30.5
      vertex 347.035 -0.457311 30.5
    endloop
  endfacet
  facet normal 0 0 -1
    outer loop
      vertex 347.083 0 30.5
      vertex 327.917 0 30.5
      vertex 347.083 100 30.5
    endloop
  endfacet
  facet normal 0 0 -1
    outer loop
      vertex 347.017 -0.543941 30.5
      vertex 347.035 -0.457311 30.5
      vertex 347.031 -0.500865 30.5
    endloop
  endfacet
  facet normal 0 0 -1
    outer loop
      vertex 327.917 100 30.5
      vertex 347.083 100 30.5
      vertex 327.917 0 30.5
    endloop
  endfacet
  facet normal 0 0 -1
    outer loop
      vertex 346.904 -0.9 30.5
      vertex 347.035 -0.457311 30.5
      vertex 347.017 -0.543941 30.5
    endloop
  endfacet
  facet normal 0 -0 -1
    outer loop
      vertex 346.818 101.1 30.5
      vertex 347.083 100 30.5
      vertex 327.917 100 30.5
    endloop
  endfacet
  facet normal -0 0 -1
    outer loop
      vertex 347.083 0 30.5
      vertex 346.904 -0.9 30.5
      vertex 327.917 0 30.5
    endloop
  endfacet
  facet normal 0 0 -1
    outer loop
      vertex 347.083 100 30.5
      vertex 346.818 101.1 30.5
      vertex 347.035 100.457 30.5
    endloop
  endfacet
  facet normal 0 0 -1
    outer loop
      vertex 347.035 100.457 30.5
      vertex 346.818 101.1 30.5
      vertex 347.017 100.544 30.5
    endloop
  endfacet
  facet normal 0 0 -1
    outer loop
      vertex 347.017 100.544 30.5
      vertex 346.851 101.038 30.5
      vertex 346.874 100.996 30.5
    endloop
  endfacet
  facet normal 0 0 -1
    outer loop
      vertex 347.017 100.544 30.5
      vertex 346.818 101.1 30.5
      vertex 346.851 101.038 30.5
    endloop
  endfacet
  facet normal -0 0 -1
    outer loop
      vertex 346.818 101.1 30.5
      vertex 327.917 100 30.5
      vertex 328.182 101.1 30.5
    endloop
  endfacet
  facet normal 0 -0 -1
    outer loop
      vertex 327.921 100.044 30.5
      vertex 328.182 101.1 30.5
      vertex 327.917 100 30.5
    endloop
  endfacet
  facet normal 0 0 -1
    outer loop
      vertex 327.917 0 30.5
      vertex 346.904 -0.9 30.5
      vertex 328.096 -0.9 30.5
    endloop
  endfacet
  facet normal 0 0 -1
    outer loop
      vertex 327.921 -0.0435535 30.5
      vertex 328.096 -0.9 30.5
      vertex 327.983 -0.543941 30.5
    endloop
  endfacet
  facet normal 0 0 -1
    outer loop
      vertex 347.035 100.457 30.5
      vertex 347.017 100.544 30.5
      vertex 347.031 100.501 30.5
    endloop
  endfacet
  facet normal 0 0 -1
    outer loop
      vertex 327.921 -0.0435535 30.5
      vertex 327.983 -0.543941 30.5
      vertex 327.969 -0.500865 30.5
    endloop
  endfacet
  facet normal 0 0 -1
    outer loop
      vertex 328.096 -0.9 30.5
      vertex 327.921 -0.0435535 30.5
      vertex 327.917 0 30.5
    endloop
  endfacet
  facet normal 0 -0 -1
    outer loop
      vertex 327.983 100.544 30.5
      vertex 328.182 101.1 30.5
      vertex 327.921 100.044 30.5
    endloop
  endfacet
  facet normal 0 0 -1
    outer loop
      vertex 327.983 100.544 30.5
      vertex 327.921 100.044 30.5
      vertex 327.969 100.501 30.5
    endloop
  endfacet
  facet normal 0 0 -1
    outer loop
      vertex 328.182 101.1 30.5
      vertex 327.983 100.544 30.5
      vertex 328.149 101.038 30.5
    endloop
  endfacet
  facet normal 0 0 -1
    outer loop
      vertex 328.149 101.038 30.5
      vertex 327.983 100.544 30.5
      vertex 328.126 100.996 30.5
    endloop
  endfacet
  facet normal 0 0 -1
    outer loop
      vertex 327.5 0 30.5
      vertex 327.917 100 30.5
      vertex 327.917 0 30.5
    endloop
  endfacet
  facet normal -0 0 -1
    outer loop
      vertex 327.917 100 30.5
      vertex 327.5 0 30.5
      vertex 327.5 100 30.5
    endloop
  endfacet
  facet normal 0 -1 0
    outer loop
      vertex 330.729 101.1 23.78
      vertex 346.818 101.1 30.5
      vertex 328.182 101.1 30.5
    endloop
  endfacet
  facet normal 0 -1 0
    outer loop
      vertex 330.729 101.1 23.78
      vertex 344.271 101.1 23.78
      vertex 346.818 101.1 30.5
    endloop
  endfacet
  facet normal 0 -1 0
    outer loop
      vertex 331.582 101.1 21.6042
      vertex 344.271 101.1 23.78
      vertex 330.729 101.1 23.78
    endloop
  endfacet
  facet normal 0 -1 0
    outer loop
      vertex 331.582 101.1 21.6042
      vertex 343.418 101.1 21.6042
      vertex 344.271 101.1 23.78
    endloop
  endfacet
  facet normal 0 -1 0
    outer loop
      vertex 332.559 101.1 19.1152
      vertex 343.418 101.1 21.6042
      vertex 331.582 101.1 21.6042
    endloop
  endfacet
  facet normal 0 -1 0
    outer loop
      vertex 332.559 101.1 19.1152
      vertex 342.441 101.1 19.1152
      vertex 343.418 101.1 21.6042
    endloop
  endfacet
  facet normal 0 -1 0
    outer loop
      vertex 333.017 101.1 18
      vertex 342.441 101.1 19.1152
      vertex 332.559 101.1 19.1152
    endloop
  endfacet
  facet normal 0 -1 0
    outer loop
      vertex 342.441 101.1 19.1152
      vertex 333.017 101.1 18
      vertex 341.983 101.1 18
    endloop
  endfacet
  facet normal 0 1 -0
    outer loop
      vertex 345.968 -0.9 27.9751
      vertex 328.096 -0.9 30.5
      vertex 346.904 -0.9 30.5
    endloop
  endfacet
  facet normal 0 1 0
    outer loop
      vertex 345.968 -0.9 27.9751
      vertex 329.032 -0.9 27.9751
      vertex 328.096 -0.9 30.5
    endloop
  endfacet
  facet normal 0 1 -0
    outer loop
      vertex 344.459 -0.9 23.9934
      vertex 329.032 -0.9 27.9751
      vertex 345.968 -0.9 27.9751
    endloop
  endfacet
  facet normal 0 1 0
    outer loop
      vertex 344.459 -0.9 23.9934
      vertex 330.541 -0.9 23.9934
      vertex 329.032 -0.9 27.9751
    endloop
  endfacet
  facet normal 0 1 -0
    outer loop
      vertex 343.04 -0.9 20.2498
      vertex 330.541 -0.9 23.9934
      vertex 344.459 -0.9 23.9934
    endloop
  endfacet
  facet normal 0 1 0
    outer loop
      vertex 343.04 -0.9 20.2498
      vertex 331.96 -0.9 20.2498
      vertex 330.541 -0.9 23.9934
    endloop
  endfacet
  facet normal 0 1 -0
    outer loop
      vertex 342.708 -0.9 19.4029
      vertex 331.96 -0.9 20.2498
      vertex 343.04 -0.9 20.2498
    endloop
  endfacet
  facet normal 0 1 0
    outer loop
      vertex 342.708 -0.9 19.4029
      vertex 332.292 -0.9 19.4029
      vertex 331.96 -0.9 20.2498
    endloop
  endfacet
  facet normal 0 1 -0
    outer loop
      vertex 342.157 -0.9 18
      vertex 332.292 -0.9 19.4029
      vertex 342.708 -0.9 19.4029
    endloop
  endfacet
  facet normal 0 1 0
    outer loop
      vertex 332.292 -0.9 19.4029
      vertex 342.157 -0.9 18
      vertex 332.843 -0.9 18
    endloop
  endfacet
endsolid OpenSCAD_Model
